<svg viewBox="0 0 396.667 396.667" xmlns="http://www.w3.org/2000/svg" xmlns:xlink="http://www.w3.org/1999/xlink" id="Capa_1" overflow="hidden"><g><g><path d="M17 87.833 379.667 87.833C389.017 87.833 396.667 80.183 396.667 70.833 396.667 61.483 389.017 53.833 379.667 53.833L17 53.833C7.65 53.833 0 61.483 0 70.833 0 80.183 7.65 87.833 17 87.833Z" stroke="none" stroke-width="1" stroke-linecap="butt" fill="#FFFFFF" fill-opacity="1"/><path d="M17 215.333 379.667 215.333C389.017 215.333 396.667 207.683 396.667 198.333 396.667 188.983 389.017 181.333 379.667 181.333L17 181.333C7.65 181.333 0 188.983 0 198.333 0 207.683 7.65 215.333 17 215.333Z" stroke="none" stroke-width="1" stroke-linecap="butt" fill="#FFFFFF" fill-opacity="1"/><path d="M17 342.833 379.667 342.833C389.017 342.833 396.667 335.183 396.667 325.833 396.667 316.483 389.017 308.833 379.667 308.833L17 308.833C7.65 308.833 0 316.483 0 325.833 0 335.183 7.65 342.833 17 342.833Z" stroke="none" stroke-width="1" stroke-linecap="butt" fill="#FFFFFF" fill-opacity="1"/></g></g><g></g><g></g><g></g><g></g><g></g><g></g><g></g><g></g><g></g><g></g><g></g><g></g><g></g><g></g><g></g></svg>