<svg height="511pt" viewBox="-76 1 511 511.99896" width="511pt" xmlns="http://www.w3.org/2000/svg"><g fill="#273c47"><path d="m343.179688 147.09375h-28.902344v-95.585938h28.902344c8.707031 0 15.765624 7.058594 15.765624 15.765626v64.058593c-.003906 8.703125-7.058593 15.761719-15.765624 15.761719zm0 0"/><path d="m16.265625 115.507812h28.195313v-64h-28.195313c-8.707031 0-15.765625 7.058594-15.765625 15.765626v32.472656c0 8.703125 7.058594 15.761718 15.765625 15.761718zm0 0"/><path d="m16.265625 197.207031h28.535156v-64h-28.535156c-8.707031 0-15.765625 7.058594-15.765625 15.765625v32.472656c0 8.703126 7.058594 15.761719 15.765625 15.761719zm0 0"/></g><path d="m313.746094 0h-268.046875c-18.511719 0-33.523438 15.007812-33.523438 33.523438v444.953124c0 18.511719 15.011719 33.523438 33.523438 33.523438h268.046875c18.515625 0 33.523437-15.011719 33.523437-33.523438v-444.953124c0-18.515626-15.007812-33.523438-33.523437-33.523438zm0 0" fill="#405968"/><path d="m71.570312 512h-25.871093c-18.515625 0-33.523438-15.003906-33.523438-33.519531v-444.960938c0-18.515625 15.007813-33.519531 33.523438-33.519531h25.871093c-18.515624 0-33.519531 15.003906-33.519531 33.519531v444.960938c0 18.515625 15.003907 33.519531 33.519531 33.519531zm0 0" fill="#273c47"/><path d="m24.484375 51.511719h310.46875v389.027343h-310.46875zm0 0" fill="#8dc2d3"/><path d="m24.484375 51.511719h13.5625v389.027343h-13.5625zm0 0" fill="#62a5b5"/><path d="m321.390625 51.511719h13.5625v389.027343h-13.5625zm0 0" fill="#a8d9e5"/><path d="m205.59375 34.421875h-51.742188c-4.328124 0-7.835937-3.507813-7.835937-7.835937 0-4.328126 3.507813-7.835938 7.835937-7.835938h51.742188c4.328125 0 7.835938 3.507812 7.835938 7.835938 0 4.328124-3.507813 7.835937-7.835938 7.835937zm0 0" fill="#273c47"/><path d="m205.59375 481.96875h-51.742188c-4.328124 0-7.835937-3.507812-7.835937-7.835938 0-4.328124 3.507813-7.835937 7.835937-7.835937h51.742188c4.328125 0 7.835938 3.507813 7.835938 7.835937 0 4.328126-3.507813 7.835938-7.835938 7.835938zm0 0" fill="#273c47"/><path d="m296.34375 151.050781h-233.242188c-10.609374 0-19.207031 8.597657-19.207031 19.203125v151.542969c0 10.609375 8.601563 19.203125 19.207031 19.203125h233.242188c10.609375 0 19.207031-8.597656 19.207031-19.203125v-151.542969c0-10.605468-8.601562-19.203125-19.207031-19.203125zm0 0" fill="#fff6e3"/><path d="m179.726562 282.96875c-1.894531 0-3.789062-.683594-5.289062-2.050781l-117.351562-107.195313c-3.195313-2.917968-3.417969-7.875-.5-11.070312 2.917968-3.199219 7.875-3.421875 11.070312-.503906l112.066406 102.371093 112.058594-102.367187c3.195312-2.917969 8.152344-2.695313 11.070312.5 2.917969 3.195312 2.695313 8.152344-.5 11.070312l-117.34375 107.195313c-1.492187 1.367187-3.390624 2.050781-5.28125 2.050781zm0 0" fill="#ddd3c3"/><path d="m68.308594 326.539062c-2.121094 0-4.242188-.859374-5.785156-2.550781-2.921876-3.195312-2.695313-8.152343.5-11.070312l79.558593-72.671875c3.195313-2.921875 8.152344-2.695313 11.070313.5 2.921875 3.195312 2.695312 8.152344-.5 11.070312l-79.558594 72.671875c-1.503906 1.375-3.398438 2.050781-5.285156 2.050781zm0 0" fill="#ddd3c3"/><path d="m294.179688 326.539062c-1.839844 0-3.683594-.640624-5.171876-1.953124l-82.601562-72.671876c-3.25-2.859374-3.566406-7.808593-.707031-11.058593s7.8125-3.566407 11.0625-.707031l82.597656 72.671874c3.25 2.859376 3.566406 7.808594.707031 11.058594-1.550781 1.761719-3.710937 2.660156-5.886718 2.660156zm0 0" fill="#ddd3c3"/></svg>