<svg height="512pt" viewBox="-17 0 511 512" width="512pt" xmlns="http://www.w3.org/2000/svg"><path d="m403.359375 150.328125h-28.042969v-92.746094h28.042969c8.449219 0 15.296875 6.851563 15.296875 15.296875v62.15625c0 8.445313-6.847656 15.292969-15.296875 15.292969zm0 0" fill="#273c47"/><path d="m65.875 119.679688h27.359375v-62.097657h-27.359375c-8.445312 0-15.292969 6.851563-15.292969 15.296875v31.507813c0 8.445312 6.847657 15.292969 15.292969 15.292969zm0 0" fill="#273c47"/><path d="m364.664062 7.605469h-260.085937c-17.964844 0-32.527344 14.5625-32.527344 32.527343v431.734376c0 17.964843 14.5625 32.527343 32.527344 32.527343h260.085937c17.964844 0 32.527344-14.5625 32.527344-32.527343v-431.734376c0-17.964843-14.5625-32.527343-32.527344-32.527343zm0 0" fill="#405968"/><path d="m129.679688 504.394531h-25.105469c-17.964844 0-32.523438-14.558593-32.523438-32.523437v-431.742188c0-17.964844 14.558594-32.523437 32.523438-32.523437h25.105469c-17.96875 0-32.527344 14.558593-32.527344 32.523437v431.742188c0 17.964844 14.558594 32.523437 32.527344 32.523437zm0 0" fill="#273c47"/><path d="m72.050781 57.585938h325.136719v377.472656h-325.136719zm0 0" fill="#fff6e3"/><path d="m72.046875 57.582031h25.105469v377.476563h-25.105469zm0 0" fill="#ddd3c3"/><path d="m372.078125 57.582031h25.109375v377.476563h-25.109375zm0 0" fill="#fff"/><path d="m431.257812 218.128906h-130.277343c-21.167969 0-38.328125 17.160156-38.328125 38.328125v66.277344c0 21.164063 17.160156 38.324219 38.328125 38.324219h26.367187l-7.871094 38.429687 74.382813-38.429687h37.398437c21.167969 0 38.328126-17.15625 38.328126-38.324219v-66.277344c0-21.167969-17.160157-38.328125-38.328126-38.328125zm0 0" fill="#6adbbd"/><path d="m46.429688 92.613281h130.277343c21.167969 0 38.328125 17.15625 38.328125 38.324219v66.277344c0 21.167968-17.160156 38.328125-38.328125 38.328125h-26.367187l7.875 38.429687-74.386719-38.429687h-37.398437c-21.167969 0-38.324219-17.160157-38.324219-38.328125v-66.277344c0-21.167969 17.15625-38.324219 38.324219-38.324219zm0 0" fill="#ef5e72"/><g fill="#405968"><path d="m72.292969 165.597656c0 8.398438-6.808594 15.203125-15.207031 15.203125-8.394532 0-15.203126-6.804687-15.203126-15.203125 0-8.394531 6.808594-15.203125 15.203126-15.203125 8.398437 0 15.207031 6.808594 15.207031 15.203125zm0 0"/><path d="m181.253906 165.597656c0 8.398438-6.808594 15.203125-15.203125 15.203125-8.398437 0-15.203125-6.804687-15.203125-15.203125 0-8.394531 6.804688-15.203125 15.203125-15.203125 8.394531 0 15.203125 6.808594 15.203125 15.203125zm0 0"/><path d="m126.773438 165.597656c0 8.398438-6.808594 15.203125-15.203126 15.203125-8.398437 0-15.203124-6.804687-15.203124-15.203125 0-8.394531 6.804687-15.203125 15.203124-15.203125 8.394532 0 15.203126 6.808594 15.203126 15.203125zm0 0"/><path d="m326.84375 289.460938c0 8.398437-6.808594 15.203124-15.203125 15.203124-8.398437 0-15.207031-6.804687-15.207031-15.203124 0-8.394532 6.808594-15.203126 15.207031-15.203126 8.394531 0 15.203125 6.808594 15.203125 15.203126zm0 0"/><path d="m435.804688 289.460938c0 8.398437-6.804688 15.203124-15.203126 15.203124-8.398437 0-15.203124-6.804687-15.203124-15.203124 0-8.394532 6.804687-15.203126 15.203124-15.203126 8.398438 0 15.203126 6.808594 15.203126 15.203126zm0 0"/><path d="m381.324219 289.460938c0 8.398437-6.808594 15.203124-15.203125 15.203124-8.398438 0-15.207032-6.804687-15.207032-15.203124 0-8.394532 6.808594-15.203126 15.207032-15.203126 8.394531 0 15.203125 6.808594 15.203125 15.203126zm0 0"/></g><path d="m209.519531 41.003906h50.203125c4.203125 0 7.605469-3.402344 7.605469-7.601562 0-4.199219-3.402344-7.605469-7.605469-7.605469h-50.203125c-4.203125 0-7.605469 3.40625-7.605469 7.605469 0 4.199218 3.402344 7.601562 7.605469 7.601562zm0 0"/><path d="m259.722656 460.050781h-50.203125c-4.203125 0-7.605469 3.40625-7.605469 7.605469s3.402344 7.601562 7.605469 7.601562h50.203125c4.203125 0 7.605469-3.402343 7.605469-7.601562s-3.40625-7.605469-7.605469-7.605469zm0 0"/><path d="m431.257812 210.523438h-26.46875v-52.640626c11.964844-.738281 21.472657-10.703124 21.472657-22.851562v-62.152344c0-12.148437-9.507813-22.109375-21.472657-22.851562v-9.898438c0-22.128906-18-40.128906-40.128906-40.128906h-260.085937c-22.125 0-40.125 18-40.125 40.128906v9.902344c-11.964844.742188-21.476563 10.703125-21.476563 22.84375v12.277344c-23.714844 1.773437-42.472656 21.625-42.472656 45.785156v14.492188c0 4.199218 3.40625 7.605468 7.605469 7.605468s7.601562-3.40625 7.601562-7.605468v-14.492188c0-16.9375 13.78125-30.722656 30.722657-30.722656h130.28125c16.9375 0 30.71875 13.785156 30.71875 30.722656v66.277344c0 16.941406-13.78125 30.722656-30.71875 30.722656h-26.367188c-2.285156 0-4.449219 1.027344-5.894531 2.796875-1.441407 1.769531-2.015625 4.097656-1.554688 6.332031l4.679688 22.851563-60.257813-31.132813c-1.078125-.554687-2.273437-.847656-3.488281-.847656h-37.398437c-16.9375 0-30.722657-13.78125-30.722657-30.722656v-21.367188c0-4.199218-3.402343-7.601562-7.601562-7.601562s-7.605469 3.402344-7.605469 7.601562v21.367188c0 25.328125 20.605469 45.929687 45.929688 45.929687h18.019531v228.726563c0 22.128906 18 40.128906 40.125 40.128906h260.085937c22.128906 0 40.128906-18 40.128906-40.128906v-103.207032h26.46875c25.328126 0 45.929688-20.605468 45.929688-45.929687v-66.28125c0-25.324219-20.601562-45.929687-45.929688-45.929687zm-26.464843-145.203126c3.558593.675782 6.261719 3.808594 6.261719 7.558594v62.152344c0 3.753906-2.703126 6.886719-6.261719 7.558594zm-300.21875-50.113281h260.085937c13.742188 0 24.921875 11.179688 24.921875 24.921875v9.855469h-309.925781v-9.855469c0-13.742187 11.179688-24.921875 24.917969-24.921875zm-40.125 50.117188v19.683593h-6.269531v-12.132812c0-3.746094 2.703124-6.878906 6.269531-7.550781zm300.210937 431.46875h-260.085937c-13.738281 0-24.917969-11.179688-24.917969-24.921875v-29.210938h309.925781v29.210938c0 13.742187-11.179687 24.921875-24.921875 24.921875zm97.320313-174.058594c0 16.9375-13.78125 30.722656-30.722657 30.722656h-37.398437c-1.214844 0-2.410156.289063-3.488281.847657l-60.253906 31.128906 4.679687-22.847656c.457031-2.238282-.113281-4.5625-1.558594-6.335938-1.445312-1.769531-3.609375-2.792969-5.894531-2.792969h-26.363281c-16.941407 0-30.722657-13.78125-30.722657-30.722656v-66.28125c0-16.9375 13.78125-30.722656 30.722657-30.722656h3.585937c4.203125 0 7.605469-3.402344 7.605469-7.601563 0-4.199218-3.402344-7.605468-7.605469-7.605468h-3.585937c-25.328125 0-45.929688 20.605468-45.929688 45.929687v66.28125c0 25.324219 20.601563 45.929687 45.929688 45.929687h17.046875l-6.003906 29.300782c-.585938 2.867187.527343 5.820312 2.859374 7.585937 1.347657 1.023438 2.964844 1.542969 4.589844 1.542969 1.195313 0 2.390625-.28125 3.488282-.847656l66.617187-34.417969v55.625h-309.921875v-184.308594h2.324219l72.742187 37.582031c1.101563.570313 2.296875.851563 3.488282.851563 1.628906 0 3.246093-.523437 4.59375-1.542969 2.332031-1.769531 3.445312-4.71875 2.859374-7.589844l-6.003906-29.300781h17.046875c25.328125 0 45.929688-20.601562 45.929688-45.929687v-66.277344c0-25.324219-20.601563-45.929688-45.929688-45.929688h-97.050781v-19.816406h309.925781v145.332032h-54.59375c-4.203125 0-7.605469 3.40625-7.605469 7.605468 0 4.199219 3.402344 7.601563 7.605469 7.601563h96.269531c16.941407 0 30.722657 13.78125 30.722657 30.722656zm0 0"/><path d="m79.894531 165.597656c0-12.578125-10.230469-22.808594-22.808593-22.808594-12.574219 0-22.804688 10.230469-22.804688 22.808594 0 12.574219 10.230469 22.808594 22.804688 22.808594 12.578124 0 22.808593-10.230469 22.808593-22.808594zm-30.40625 0c0-4.191406 3.410157-7.601562 7.597657-7.601562 4.191406 0 7.601562 3.410156 7.601562 7.601562s-3.410156 7.597656-7.601562 7.597656c-4.1875 0-7.597657-3.40625-7.597657-7.597656zm0 0"/><path d="m166.050781 188.40625c12.574219 0 22.808594-10.230469 22.808594-22.808594 0-12.574218-10.234375-22.808594-22.808594-22.808594-12.578125 0-22.808593 10.234376-22.808593 22.808594 0 12.578125 10.230468 22.808594 22.808593 22.808594zm0-30.410156c4.191407 0 7.597657 3.410156 7.597657 7.601562s-3.40625 7.597656-7.597657 7.597656c-4.191406 0-7.601562-3.40625-7.601562-7.597656s3.410156-7.601562 7.601562-7.601562zm0 0"/><path d="m134.378906 165.597656c0-12.578125-10.234375-22.808594-22.808594-22.808594-12.578124 0-22.808593 10.230469-22.808593 22.808594 0 12.574219 10.230469 22.808594 22.808593 22.808594 12.574219 0 22.808594-10.230469 22.808594-22.808594zm-30.410156 0c0-4.191406 3.410156-7.601562 7.601562-7.601562 4.191407 0 7.597657 3.410156 7.597657 7.601562s-3.40625 7.597656-7.597657 7.597656c-4.191406.003907-7.601562-3.40625-7.601562-7.597656zm0 0"/><path d="m311.640625 266.652344c-12.578125 0-22.808594 10.234375-22.808594 22.808594 0 12.578124 10.230469 22.808593 22.808594 22.808593 12.574219 0 22.804687-10.230469 22.804687-22.808593 0-12.574219-10.230468-22.808594-22.804687-22.808594zm0 30.410156c-4.191406 0-7.601563-3.410156-7.601563-7.601562 0-4.191407 3.410157-7.597657 7.601563-7.597657s7.597656 3.40625 7.597656 7.597657c0 4.191406-3.40625 7.601562-7.597656 7.601562zm0 0"/><path d="m420.601562 266.652344c-12.578124 0-22.808593 10.234375-22.808593 22.808594 0 12.578124 10.230469 22.808593 22.808593 22.808593 12.574219 0 22.808594-10.230469 22.808594-22.808593 0-12.574219-10.234375-22.808594-22.808594-22.808594zm0 30.410156c-4.191406 0-7.601562-3.410156-7.601562-7.601562 0-4.191407 3.410156-7.597657 7.601562-7.597657 4.191407 0 7.597657 3.40625 7.597657 7.597657 0 4.191406-3.40625 7.601562-7.597657 7.601562zm0 0"/><path d="m366.121094 266.652344c-12.578125 0-22.808594 10.234375-22.808594 22.808594 0 12.578124 10.230469 22.808593 22.808594 22.808593 12.574218 0 22.804687-10.230469 22.804687-22.808593 0-12.574219-10.230469-22.808594-22.804687-22.808594zm0 30.410156c-4.191406 0-7.601563-3.410156-7.601563-7.601562 0-4.191407 3.410157-7.597657 7.601563-7.597657s7.597656 3.40625 7.597656 7.597657c0 4.191406-3.40625 7.601562-7.597656 7.601562zm0 0"/></svg>