<svg height="512pt" viewBox="-64 0 512 512.00101" width="512pt" xmlns="http://www.w3.org/2000/svg"><g fill="#273c47"><path d="m360.382812 150.328125h-28.042968v-92.746094h28.042968c8.445313 0 15.296876 6.851563 15.296876 15.296875v62.15625c0 8.445313-6.851563 15.292969-15.296876 15.292969zm0 0"/><path d="m22.898438 119.679688h27.359374v-62.097657h-27.359374c-8.445313 0-15.296876 6.851563-15.296876 15.296875v31.507813c0 8.445312 6.851563 15.292969 15.296876 15.292969zm0 0"/><path d="m22.898438 198.953125h27.6875v-62.097656h-27.6875c-8.445313 0-15.296876 6.847656-15.296876 15.296875v31.507812c0 8.445313 6.851563 15.292969 15.296876 15.292969zm0 0"/></g><path d="m321.683594 7.605469h-260.082032c-17.964843 0-32.527343 14.5625-32.527343 32.527343v431.734376c0 17.964843 14.5625 32.527343 32.527343 32.527343h260.082032c17.964844 0 32.527344-14.5625 32.527344-32.527343v-431.734376c0-17.964843-14.5625-32.527343-32.527344-32.527343zm0 0" fill="#405968"/><path d="m86.699219 504.394531h-25.101563c-17.964844 0-32.523437-14.558593-32.523437-32.523437v-431.742188c0-17.964844 14.558593-32.523437 32.523437-32.523437h25.101563c-17.964844 0-32.523438 14.558593-32.523438 32.523437v431.742188c0 17.964844 14.558594 32.523437 32.523438 32.523437zm0 0" fill="#273c47"/><path d="m29.074219 57.585938h325.132812v377.472656h-325.132812zm0 0" fill="#f7e352"/><path d="m29.070312 57.582031h25.105469v377.476563h-25.105469zm0 0" fill="#f4be53"/><path d="m329.101562 57.582031h25.105469v377.476563h-25.105469zm0 0" fill="#fced95"/><path d="m311.546875 246.320312c0 56.550782-39.144531 103.953126-91.816406 116.601563-9.011719 2.160156-18.417969 3.304687-28.089844 3.304687-66.21875 0-119.902344-53.683593-119.902344-119.90625 0-66.21875 53.683594-119.902343 119.902344-119.902343 9.671875 0 19.078125 1.144531 28.089844 3.304687 52.671875 12.648438 91.816406 60.050782 91.816406 116.597656zm0 0" fill="#62a5b5"/><path d="m311.546875 246.320312c0 56.550782-39.144531 103.953126-91.816406 116.601563-52.675781-12.640625-91.824219-60.050781-91.824219-116.601563 0-56.546874 39.148438-103.957031 91.824219-116.597656 52.671875 12.648438 91.816406 60.050782 91.816406 116.597656zm0 0" fill="#8dc2d3"/><path d="m166.539062 41.003906h50.207032c4.199218 0 7.601562-3.402344 7.601562-7.601562 0-4.199219-3.402344-7.605469-7.601562-7.605469h-50.207032c-4.199218 0-7.605468 3.40625-7.605468 7.605469 0 4.199218 3.40625 7.601562 7.605468 7.601562zm0 0"/><path d="m216.746094 460.050781h-50.207032c-4.199218 0-7.605468 3.402344-7.605468 7.601563 0 4.199218 3.40625 7.605468 7.605468 7.605468h50.207032c4.199218 0 7.601562-3.40625 7.601562-7.605468 0-4.199219-3.402344-7.601563-7.601562-7.601563zm0 0"/><path d="m361.816406 50.027344v-9.894532c0-22.128906-18.003906-40.132812-40.132812-40.132812h-260.082032c-22.128906 0-40.132812 18.003906-40.132812 40.132812v9.894532c-11.960938.742187-21.46875 10.703125-21.46875 22.851562v31.507813c0 12.144531 9.503906 22.105469 21.464844 22.847656v2.066406c-11.960938.746094-21.464844 10.707031-21.464844 22.851563v31.507812c0 12.144532 9.503906 22.105469 21.464844 22.851563l.003906 265.359375c0 22.128906 18.003906 40.128906 40.132812 40.128906h260.082032c22.128906 0 40.132812-18.003906 40.132812-40.128906v-313.988282c11.960938-.742187 21.464844-10.703124 21.464844-22.847656v-62.15625c0-12.144531-9.503906-22.105468-21.464844-22.851562zm-300.214844-34.820313h260.082032c13.746094 0 24.925781 11.183594 24.925781 24.925781v9.84375h-217.03125c-4.199219 0-7.601563 3.40625-7.601563 7.605469s3.402344 7.605469 7.601563 7.605469h217.03125v362.261719h-309.933594v-362.261719h62.484375c4.199219 0 7.605469-3.40625 7.605469-7.605469s-3.40625-7.601562-7.605469-7.601562h-62.484375v-9.847657c0-13.742187 11.183594-24.925781 24.925781-24.925781zm-46.394531 89.179688v-31.507813c0-3.75 2.699219-6.886718 6.257813-7.558594v46.621094c-3.558594-.671875-6.257813-3.804687-6.257813-7.554687zm0 79.273437v-31.507812c0-3.75 2.699219-6.882813 6.257813-7.558594v46.621094c-3.558594-.671875-6.257813-3.804688-6.257813-7.554688zm306.476563 313.132813h-260.082032c-13.742187 0-24.921874-11.183594-24.921874-24.925781v-29.210938h309.929687v29.210938c0 13.742187-11.179687 24.925781-24.925781 24.925781zm46.390625-361.757813c0 3.75-2.699219 6.882813-6.257813 7.558594v-77.273438c3.558594.675782 6.257813 3.808594 6.257813 7.558594zm0 0"/><path d="m64.132812 246.328125c0 70.304687 57.199219 127.5 127.511719 127.5 10.085938 0 20.132813-1.183594 29.859375-3.515625 27.371094-6.566406 52.167969-22.363281 69.828125-44.480469 18.195313-22.789062 27.8125-50.28125 27.8125-79.503906 0-12.855469-1.90625-25.542969-5.671875-37.703125-1.242187-4.011719-5.496094-6.257812-9.511718-5.015625-4.011719 1.242187-6.257813 5.5-5.015626 9.511719 2.570313 8.296875 4.144532 16.878906 4.726563 25.597656h-37.234375c-.6875-20.03125-4.070312-38.972656-9.609375-55.636719 6.1875-3.6875 12.066406-7.90625 17.574219-12.613281 4.738281 5.148438 9.011718 10.742188 12.722656 16.726562 2.210938 3.566407 6.898438 4.667969 10.46875 2.453126 3.570312-2.214844 4.667969-6.898438 2.457031-10.46875-17.585937-28.359376-46.214843-49.078126-78.550781-56.847657-9.722656-2.332031-19.769531-3.515625-29.855469-3.515625-70.3125-.003906-127.511719 57.199219-127.511719 127.511719zm119.90625 111.34375c-12.339843-3.066406-23.980468-13.550781-33.382812-30.289063-1.882812-3.359374-3.621094-6.910156-5.238281-10.601562 12.097656-5.472656 25.144531-8.761719 38.621093-9.664062zm-46.640624-22.839844c3.03125 5.394531 6.300781 10.269531 9.769531 14.601563-9.878907-4.28125-19.027344-9.933594-27.203125-16.726563 3.832031-3.183593 7.851562-6.085937 12.023437-8.710937 1.679688 3.757812 3.472657 7.386718 5.410157 10.835937zm67.03125 21.09375c-1.710938.734375-3.441407 1.308594-5.183594 1.742188v-50.542969c6.324218.421875 12.589844 1.363281 18.707031 2.828125 6.851563 1.648437 13.507813 3.949219 19.894531 6.839844-8.320312 19.167969-19.953125 33.378906-33.417968 39.132812zm46.820312-31.9375c4.207031 2.640625 8.242188 5.5625 12.082031 8.75-8.277343 6.863281-17.511719 12.519531-27.359375 16.773438 5.808594-7.226563 10.945313-15.839844 15.277344-25.523438zm-29.746094-28.820312c-7.28125-1.746094-14.738281-2.847657-22.257812-3.292969v-37.949219h51.972656c-.648438 17.398438-3.503906 33.960938-8.082031 48.578125-6.960938-3.078125-14.195313-5.550781-21.632813-7.335937zm-37.464844-3.285157c-15.324218.902344-30.167968 4.519532-43.953124 10.617188-4.648438-14.765625-7.398438-31.277344-8.023438-48.574219h51.976562zm-51.976562-53.164062c.625-17.296875 3.375-33.808594 8.023438-48.574219 13.785156 6.097657 28.632812 9.714844 43.953124 10.617188v37.957031zm13.355469-62.851562c1.617187-3.691407 3.355469-7.246094 5.238281-10.605469 9.402344-16.738281 21.042969-27.222657 33.382812-30.289063v50.554688c-13.476562-.902344-26.523437-4.191406-38.621093-9.660156zm53.828125-40.890626c1.742187.433594 3.46875 1.007813 5.179687 1.738282 13.464844 5.757812 25.097657 19.96875 33.421875 39.136718-6.386718 2.890626-13.042968 5.191407-19.890625 6.835938-6.121093 1.46875-12.386719 2.410156-18.710937 2.832031zm-61.847656 22.835938c-1.9375 3.453125-3.734376 7.082031-5.414063 10.835938-4.167969-2.621094-8.1875-5.523438-12.019531-8.710938 8.171875-6.792969 17.324218-12.449219 27.203125-16.726562-3.46875 4.332031-6.738281 9.207031-9.769531 14.601562zm-11 25.25c-5.605469 16.878906-8.882813 35.847656-9.550782 55.652344h-37.246094c1.761719-26.210938 12.554688-49.984375 29.289063-68.230469 5.511719 4.710937 11.367187 8.914063 17.507813 12.578125zm-46.796876 70.863281h37.246094c.667969 19.808594 3.949219 38.777344 9.550782 55.660157-6.136719 3.664062-11.992188 7.863281-17.503907 12.574218-16.738281-18.242187-27.53125-42.023437-29.292969-68.234375zm199.847657 62.417969c-1.609375 2.011719-3.300781 3.953125-5.039063 5.84375-5.511718-4.707031-11.390625-8.929688-17.582031-12.621094 5.539063-16.667968 8.921875-35.605468 9.609375-55.640625h37.230469c-1.503907 22.890625-9.785157 44.339844-24.21875 62.417969zm-28.230469-77.625h-51.972656v-37.949219c7.519531-.445312 14.976562-1.546875 22.257812-3.292969 7.4375-1.785156 14.671875-4.257812 21.632813-7.335937 4.578125 14.617187 7.433593 31.179687 8.082031 48.578125zm-15.242188-95.574219c9.851563 4.261719 19.066407 9.9375 27.328126 16.789063-3.828126 3.179687-7.855469 6.09375-12.054688 8.726562-4.328125-9.683594-9.464844-18.292968-15.273438-25.515625zm0 0"/></svg>