<svg height="512pt" viewBox="-70 0 512 512" width="512pt" xmlns="http://www.w3.org/2000/svg"><path d="m98.089844 95.152344v87.660156h45.917968v-87.660156c0-23.054688 18.691407-41.746094 41.746094-41.746094 23.054688 0 41.742188 18.691406 41.742188 41.746094v87.660156h45.917968v-87.660156c0-48.414063-39.25-87.660156-87.660156-87.660156-48.414062-.003907-87.664062 39.246093-87.664062 87.660156zm0 0" fill="#838383"/><path d="m273.410156 95.152344v87.65625h-21.234375v-87.65625c0-44.820313-33.636719-81.78125-77.039062-87.015625 3.476562-.429688 7.019531-.648438 10.617187-.648438 48.414063 0 87.65625 39.246094 87.65625 87.664063zm0 0" fill="#5a5a5a"/><path d="m331.484375 504.507812h-291.464844c-17.964843 0-32.527343-14.5625-32.527343-32.527343v-256.640625c0-17.964844 14.5625-32.527344 32.527343-32.527344h291.464844c17.964844 0 32.53125 14.5625 32.53125 32.527344v256.640625c0 17.964843-14.566406 32.527343-32.53125 32.527343zm0 0" fill="#ffd86e"/><path d="m364.011719 215.335938v256.648437c0 17.957031-14.5625 32.527344-32.527344 32.527344h-31.707031c17.964844 0 32.527344-14.570313 32.527344-32.527344v-256.648437c0-17.957032-14.5625-32.527344-32.527344-32.527344h31.707031c17.964844 0 32.527344 14.570312 32.527344 32.527344zm0 0" fill="#ffb509"/><path d="m364.015625 271.488281h-356.523437v-56.148437c0-17.964844 14.5625-32.527344 32.527343-32.527344h291.464844c17.964844 0 32.527344 14.5625 32.527344 32.527344v56.148437zm0 0" fill="#80e0dc"/><path d="m364.011719 215.335938v56.148437h-31.707031v-56.148437c0-17.957032-14.5625-32.527344-32.53125-32.527344h31.710937c17.964844 0 32.527344 14.570312 32.527344 32.527344zm0 0" fill="#00a8b0"/><path d="m216.785156 356.84375c0-18.304688-15.847656-32.90625-34.566406-30.835938-14.542969 1.605469-25.792969 12.929688-27.320312 27.480469-1.191407 11.3125 3.707031 21.550781 11.816406 27.859375 2.480468 1.925782 3.882812 4.929688 3.882812 8.074219v17.941406c0 8.371094 6.785156 15.15625 15.15625 15.15625 8.367188 0 15.152344-6.785156 15.152344-15.15625v-17.941406c0-3.1875 1.476562-6.1875 3.984375-8.15625 7.242187-5.679687 11.894531-14.503906 11.894531-24.421875zm0 0" fill="#838383"/><path d="m216.78125 356.84375c0 9.917969-4.652344 18.746094-11.894531 24.417969-2.507813 1.96875-3.976563 4.972656-3.976563 8.160156v17.9375c0 4.195313-1.695312 7.980469-4.441406 10.726563-2.746094 2.734374-6.53125 4.433593-10.71875 4.433593-4.28125 0-8.148438-1.777343-10.90625-4.636719 2.4375-.71875 4.625-2.046874 6.375-3.792968 2.746094-2.746094 4.441406-6.53125 4.441406-10.726563v-17.9375c0-3.183593 1.480469-6.191406 3.984375-8.160156 7.242188-5.671875 11.894531-14.5 11.894531-24.417969 0-11.59375-6.371093-21.71875-15.796874-27.042968 17.148437 0 31.039062 13.890624 31.039062 31.039062zm0 0" fill="#5a5a5a"/><g fill="#ffd86e"><path d="m133.539062 227.152344c0 10.074218-8.167968 18.242187-18.242187 18.242187s-18.242187-8.167969-18.242187-18.242187c0-10.078125 8.167968-18.242188 18.242187-18.242188s18.242187 8.164063 18.242187 18.242188zm0 0"/><path d="m203.996094 227.152344c0 10.074218-8.167969 18.242187-18.242188 18.242187-10.078125 0-18.246094-8.167969-18.246094-18.242187 0-10.078125 8.167969-18.242188 18.246094-18.242188 10.074219 0 18.242188 8.164063 18.242188 18.242188zm0 0"/><path d="m274.449219 227.152344c0 10.074218-8.164063 18.242187-18.242188 18.242187-10.074219 0-18.242187-8.167969-18.242187-18.242187 0-10.078125 8.167968-18.242188 18.242187-18.242188 10.078125 0 18.242188 8.164063 18.242188 18.242188zm0 0"/></g><path d="m133.539062 227.152344c0 10.078125-8.167968 18.246094-18.246093 18.246094-7.089844 0-13.242188-4.054688-16.25-9.964844 1.589843.457031 3.269531.695312 5.003906.695312 10.066406 0 18.238281-8.167968 18.238281-18.246094 0-2.976562-.71875-5.792968-1.988281-8.277343 7.648437 2.167969 13.242187 9.207031 13.242187 17.546875zm0 0" fill="#ffb509"/><path d="m204 227.152344c0 10.078125-8.171875 18.246094-18.246094 18.246094-7.09375 0-13.246094-4.054688-16.261718-9.964844 1.589843.457031 3.265624.695312 5.003906.695312 10.078125 0 18.246094-8.167968 18.246094-18.246094 0-2.976562-.707032-5.78125-1.976563-8.269531 7.640625 2.167969 13.234375 9.199219 13.234375 17.539063zm0 0" fill="#ffb509"/><path d="m274.449219 227.152344c0 10.078125-8.160157 18.246094-18.238281 18.246094-7.101563 0-13.253907-4.054688-16.269532-9.976563 1.589844.46875 3.277344.707031 5.015625.707031 10.078125 0 18.246094-8.167968 18.246094-18.246094 0-2.976562-.71875-5.792968-1.988281-8.277343 7.640625 2.167969 13.234375 9.207031 13.234375 17.546875zm0 0" fill="#ffb509"/><path d="m331.484375 175.324219h-50.582031v-40.167969c0-4.136719-3.351563-7.488281-7.488282-7.488281-4.136718 0-7.492187 3.351562-7.492187 7.488281v40.167969h-30.933594v-80.171875c0-27.148438-22.089843-49.238282-49.238281-49.238282s-49.234375 22.089844-49.234375 49.238282v80.171875h-30.933594v-80.171875c0-44.207032 35.960938-80.171875 80.167969-80.171875 20.152344 0 39.410156 7.503906 54.238281 21.128906 14.734375 13.546875 23.832031 31.9375 25.609375 51.785156.371094 4.117188 4.027344 7.15625 8.128906 6.789063 4.121094-.371094 7.160157-4.007813 6.792969-8.128906-2.113281-23.570313-12.90625-45.402344-30.394531-61.472657-17.59375-16.175781-40.457031-25.082031-64.371094-25.082031-52.46875 0-95.152344 42.683594-95.152344 95.152344v80.171875h-50.582031c-22.066406 0-40.019531 17.949219-40.019531 40.015625v88.101562c0 4.132813 3.351562 7.488282 7.492188 7.488282 4.136718 0 7.488281-3.351563 7.488281-7.488282v-24.460937h341.542969v193c0 13.808593-11.230469 25.039062-25.039063 25.039062h-291.464844c-13.804687 0-25.039062-11.230469-25.039062-25.039062v-123.601563c0-4.132812-3.351563-7.488281-7.488281-7.488281-4.140626 0-7.492188 3.351563-7.492188 7.488281v123.601563c0 22.066406 17.953125 40.019531 40.019531 40.019531h291.464844c22.066406 0 40.019531-17.953125 40.019531-40.019531v-256.640625c0-22.066406-17.949218-40.015625-40.019531-40.015625zm-179.988281-80.171875c0-18.890625 15.367187-34.257813 34.257812-34.257813 18.886719 0 34.253906 15.367188 34.253906 34.257813v80.171875h-68.511718zm205.027344 168.847656h-341.542969v-48.660156c0-13.804688 11.230469-25.039063 25.039062-25.039063h291.464844c13.808594 0 25.039063 11.234375 25.039063 25.039063zm0 0"/><path d="m185.753906 430.007812c12.484375 0 22.644532-10.160156 22.644532-22.644531v-17.945312c0-.878907.40625-1.703125 1.113281-2.261719 9.382812-7.355469 14.761719-18.40625 14.761719-30.3125 0-10.9375-4.675782-21.402344-12.828126-28.703125-8.148437-7.296875-19.097656-10.789063-30.050781-9.578125-18.085937 1.996094-32.046875 16.039062-33.945312 34.140625-1.40625 13.398437 4.074219 26.316406 14.671875 34.554687.617187.480469.984375 1.289063.984375 2.160157v17.941406c0 12.492187 10.160156 22.648437 22.648437 22.648437zm-23.40625-75.738281c1.15625-11.039062 9.667969-19.597656 20.691406-20.816406.917969-.101563 1.828126-.152344 2.730469-.152344 5.820313 0 11.308594 2.082031 15.679688 6 4.984375 4.464844 7.84375 10.859375 7.84375 17.542969 0 7.273438-3.289063 14.027344-9.023438 18.527344-4.355469 3.417968-6.851562 8.535156-6.851562 14.046875v17.945312c0 4.226563-3.441407 7.664063-7.664063 7.664063-4.226562 0-7.667968-3.4375-7.667968-7.664063v-17.941406c0-5.460937-2.53125-10.691406-6.769532-13.988281-6.480468-5.039063-9.832031-12.949219-8.96875-21.164063zm0 0"/><path d="m115.296875 201.417969c-14.1875 0-25.734375 11.542969-25.734375 25.730469 0 14.191406 11.546875 25.734374 25.734375 25.734374 14.191406 0 25.734375-11.542968 25.734375-25.734374 0-14.1875-11.542969-25.730469-25.734375-25.730469zm0 36.484375c-5.929687 0-10.753906-4.824219-10.753906-10.753906 0-5.929688 4.824219-10.75 10.753906-10.75s10.753906 4.820312 10.753906 10.75c0 5.929687-4.824219 10.753906-10.753906 10.753906zm0 0"/><path d="m185.753906 201.417969c-14.191406 0-25.734375 11.542969-25.734375 25.730469 0 14.191406 11.542969 25.734374 25.734375 25.734374 14.1875 0 25.730469-11.542968 25.730469-25.734374 0-14.1875-11.542969-25.730469-25.730469-25.730469zm0 36.484375c-5.929687 0-10.753906-4.824219-10.753906-10.753906 0-5.929688 4.824219-10.75 10.753906-10.75 5.929688 0 10.75 4.820312 10.75 10.75 0 5.929687-4.820312 10.753906-10.75 10.753906zm0 0"/><path d="m256.207031 201.417969c-14.1875 0-25.730469 11.542969-25.730469 25.730469 0 14.191406 11.542969 25.734374 25.730469 25.734374 14.191407 0 25.734375-11.542968 25.734375-25.734374 0-14.1875-11.542968-25.730469-25.734375-25.730469zm0 36.484375c-5.925781 0-10.75-4.824219-10.75-10.753906 0-5.929688 4.820313-10.75 10.75-10.75 5.929688 0 10.753907 4.820312 10.753907 10.75 0 5.929687-4.824219 10.753906-10.753907 10.753906zm0 0"/></svg>