<?xml version="1.0" standalone="no"?><!DOCTYPE svg PUBLIC "-//W3C//DTD SVG 1.1//EN" "http://www.w3.org/Graphics/SVG/1.1/DTD/svg11.dtd"><svg class="icon" width="200px" height="200.00px" viewBox="0 0 1024 1024" version="1.1" xmlns="http://www.w3.org/2000/svg"><path fill="#707070" d="M299.760666 567.406914 185.195398 799.323914c-9.614985 26.107611 11.277858 49.5096 37.359886 37.385469L454.326974 722.078623c9.991562-1.950422 19.683295-5.826705 27.423583-13.566994l411.732365-412.008658c20.669762-20.683065 20.669762-54.232159 0-74.916247l-93.569072-93.635587c-20.685111-20.683065-54.193273-20.683065-74.864058 0L313.31538 539.958772C305.575092 547.713386 301.698808 557.401026 299.760666 567.406914zM743.754806 184.135764c10.340509-10.340509 27.097148-10.340509 37.438681 0l56.144718 56.184627c10.342556 10.341532 10.342556 27.110451 0 37.451984l-56.144718 56.183604-92.230588-94.975095L743.754806 184.135764zM649.521608 278.447756l94.233198 92.972485L444.311877 671.058622c-35.084053-35.122939-83.631746-83.695191-93.571119-93.635587L649.521608 278.447756zM397.688 699.301873l-143.119605 86.687338c-13.048177 6.064113-24.742521-6.478552-18.693758-18.694781l86.637196-143.209656L397.688 699.301873zM882.933659 405.735791l0 426.264337c0 29.257348-28.92989 53.596685-58.161654 53.596685L189.551612 885.596813c-29.230742 0-52.930513-23.715121-52.930513-52.971445L136.621099 196.98849c0-29.256324 24.390503-57.667398 53.632501-57.667398l426.26536 0 0-53.283554L190.2536 86.037539c-58.472739 0-106.565061 52.438303-106.565061 110.949928l0 635.637902c0 58.512648 47.390333 105.939821 105.863073 105.939821l635.220393 0c58.474786 0 111.444185-48.053436 111.444185-106.566084L936.216189 405.735791 882.933659 405.735791z" /></svg>