<?xml version="1.0" standalone="no"?><!DOCTYPE svg PUBLIC "-//W3C//DTD SVG 1.1//EN" "http://www.w3.org/Graphics/SVG/1.1/DTD/svg11.dtd"><svg t="1575724365663" class="icon" viewBox="0 0 1024 1024" version="1.1" xmlns="http://www.w3.org/2000/svg" p-id="1115" xmlns:xlink="http://www.w3.org/1999/xlink" width="200" height="200"><defs><style type="text/css"></style></defs><path d="M192 599.36h640v248.384a106.112 106.112 0 0 1-106.112 106.112H298.112A106.112 106.112 0 0 1 192 847.744V599.36z" fill="#D3DFFF" p-id="1116"></path><path d="M298.112 355.456A64.512 64.512 0 0 0 233.6 419.936v427.808c0 35.616 28.864 64.512 64.512 64.512h427.776a64.512 64.512 0 0 0 64.512-64.512V419.936a64.512 64.512 0 0 0-64.512-64.48H298.112z m0-41.6h427.776A106.112 106.112 0 0 1 832 419.936v427.808a106.112 106.112 0 0 1-106.112 106.112H298.112A106.112 106.112 0 0 1 192 847.744V419.936a106.112 106.112 0 0 1 106.112-106.08z" fill="#1147D6" p-id="1117"></path><path d="M372.8 320h-41.6V192C331.2 115.584 416.992 43.2 512 43.2c95.008 0 180.8 72.384 180.8 148.8v128h-41.6V192c0-51.744-65.76-107.2-139.2-107.2-73.44 0-139.2 55.456-139.2 107.2v128zM483.04 576h57.92L544 768H480z" fill="#1147D6" p-id="1118"></path><path d="M512 544m-64 0a64 64 0 1 0 128 0 64 64 0 1 0-128 0Z" fill="#1147D6" p-id="1119"></path></svg>