<?xml version="1.0" standalone="no"?><!DOCTYPE svg PUBLIC "-//W3C//DTD SVG 1.1//EN" "http://www.w3.org/Graphics/SVG/1.1/DTD/svg11.dtd"><svg t="1575724430324" class="icon" viewBox="0 0 1024 1024" version="1.1" xmlns="http://www.w3.org/2000/svg" p-id="3697" xmlns:xlink="http://www.w3.org/1999/xlink" width="200" height="200"><defs><style type="text/css"></style></defs><path d="M722.855 556.7713333333334h-419.321c-28.839 0-52.404 22.988-52.404 51.086v340.549c0 28.098 23.566 51.086 52.404 51.086h419.321c28.839 0 52.404-22.988 52.404-51.086v-340.631c0-28.098-23.566-51.004-52.404-51.004zM552.293 793.6643333333336v55.042c0 21.011-17.551 38.15-39.139 38.15s-39.139-17.138-39.139-38.15v-55.042c-19.033-12.607-30.734-33.7-30.734-56.277 0-37.573 31.311-68.142 69.873-68.142s69.873 30.569 69.873 68.142c0.082 22.659-11.701 43.671-30.734 56.277z" fill="#F7D856" p-id="3698"></path><path d="M511.918 661.5803333333336c-40.704 0-73.746 33.124-73.746 73.746 0 24.472 12.36 47.297 32.465 60.974v59.573c0 22.742 18.54 41.281 41.281 41.281s41.281-18.54 41.281-41.281v-59.573c20.105-13.678 32.464-36.502 32.464-60.974 0.082-40.704-33.041-73.746-73.746-73.746zM539.439 783.3643333333335c-3.379 1.895-5.027 5.603-4.532 9.229 0 0.165-0.082 0.33-0.082 0.495v62.787c0 12.607-10.217 22.824-22.824 22.824s-22.824-10.217-22.824-22.824v-62.787c0-0.164-0.082-0.33-0.082-0.495 0.495-3.625-1.154-7.333-4.532-9.229-17.138-9.888-27.85-28.262-27.85-48.038 0-30.488 24.802-55.288 55.288-55.288s55.288 24.802 55.288 55.288c0 19.776-10.712 38.15-27.85 48.038z" fill="#292C3C" p-id="3699"></path><path d="M733.238 550.9213333333333h-45.401v-66.989c0-111.072-73.992-191.738-175.918-191.738s-175.918 80.667-175.918 191.738v66.989h-45.4c-30.405 0-55.288 24.884-55.288 55.288v368.894c0 30.405 24.884 55.288 55.288 55.288h442.639c30.405 0 55.288-24.884 55.288-55.288v-368.894c0.083-30.405-24.802-55.288-55.288-55.288zM372.913 483.9313333333332c0-91.214 57.185-154.907 139.004-154.907s139.004 63.694 139.004 154.907v66.989h-278.009v-66.989zM751.694 975.1033333333336c0 9.97-8.487 18.457-18.457 18.457h-442.639c-9.97 0-18.457-8.487-18.457-18.457v-368.894c0-9.97 8.487-18.457 18.457-18.457h442.639c9.97 0 18.457 8.487 18.457 18.457v368.894z" fill="#292C3C" p-id="3700"></path></svg>