<svg height="511pt" viewBox="0 -43 511.998 511" width="511pt" xmlns="http://www.w3.org/2000/svg"><path d="m227.816406 92.613281h231.402344c25.007812 0 45.28125 20.273438 45.28125 45.28125v177.007813c0 25.007812-20.273438 45.28125-45.28125 45.28125h-59.371094c-12.792968 0-21.507812 12.925781-16.761718 24.804687 1.859374 4.660157 4.324218 9.3125 7.542968 13.828125 6.085938 8.539063-1.214844 20.171875-11.503906 18.164063-19.671875-3.847657-43.679688-12.988281-60.300781-34.304688-11.050781-14.175781-28-22.492187-45.972657-22.492187h-45.035156c-25.007812 0-45.285156-20.273438-45.285156-45.28125v-177.007813c0-25.007812 20.273438-45.28125 45.285156-45.28125zm0 0" fill="#2eddda"/><path d="m357.476562 290.988281c49.804688-47.992187 30.605469-153.714843 19.601563-198.375h-149.261719c-25.007812 0-45.285156 20.273438-45.285156 45.28125v177.007813c0 25.007812 20.277344 45.28125 45.285156 45.28125h45.035156c12.101563-35.621094 32.835938-19.289063 84.625-69.195313zm0 0" fill="#00d2ce"/><path d="m284.183594 8h-231.402344c-25.007812 0-45.28125 20.273438-45.28125 45.28125v177.007812c0 25.007813 20.273438 45.28125 45.28125 45.28125h59.371094c12.792968 0 21.507812 12.925782 16.761718 24.804688-1.859374 4.660156-4.324218 9.3125-7.542968 13.828125-6.085938 8.539063 1.214844 20.175781 11.503906 18.164063 19.671875-3.847657 43.679688-12.988282 60.300781-34.304688 11.050781-14.175781 28-22.492188 45.972657-22.492188h45.035156c25.007812 0 45.285156-20.273437 45.285156-45.28125v-177.007812c0-25.007812-20.273438-45.28125-45.285156-45.28125zm0 0" fill="#76e7e7"/><path d="m254.433594 128.617188c8.40625 0 15.222656-6.816407 15.222656-15.222657 0-8.410156-6.816406-15.226562-15.222656-15.226562h-60.597656c6.097656-4.191407 13.074218-12.953125 18.824218-21.179688 6.859375-9.816406 7.527344-24.734375-2.558594-31.1875 0 0-12.027343-8.300781-24.148437 4.835938-5.003906 5.425781-12.441406 11.375-23.160156 16.105469-26.253907 11.578124-34.949219 44.167968-34.949219 44.167968v109.050782h126.589844c8.40625 0 15.222656-6.816407 15.222656-15.226563 0-8.40625-6.816406-15.222656-15.222656-15.222656 8.40625 0 15.222656-6.816407 15.222656-15.222657 0-8.410156-6.816406-15.226562-15.222656-15.226562 8.40625 0 15.222656-6.816406 15.222656-15.222656s-6.816406-15.222656-15.222656-15.222656zm0 0" fill="#ffddcf"/><path d="m95.195312 240.355469h12.46875c15.402344 0 27.886719-12.484375 27.886719-27.882813v-119.433594h-40.355469c-15.402343 0-27.882812 12.484376-27.882812 27.886719v91.546875c0 15.398438 12.480469 27.882813 27.882812 27.882813zm0 0" fill="#00ce8e"/><path d="m116.429688 204.960938c0 8.285156-6.714844 15-15 15-8.285157 0-15-6.714844-15-15 0-8.285157 6.714843-15 15-15 8.285156 0 15 6.714843 15 15zm0 0" fill="#f9ee80"/><path d="m459.21875 85.113281h-97.195312c-4.140626 0-7.5 3.355469-7.5 7.5s3.359374 7.5 7.5 7.5h97.195312c20.832031 0 37.78125 16.949219 37.78125 37.78125v177.007813c0 20.832031-16.949219 37.78125-37.78125 37.78125h-59.371094c-8.488281 0-16.398437 4.195312-21.15625 11.222656-4.769531 7.039062-5.730468 15.960938-2.574218 23.863281 2.179687 5.449219 5.003906 10.632813 8.40625 15.402344 1.5 2.105469.589843 4 .128906 4.714844-.539063.839843-1.789063 2.183593-4.089844 1.730469-24.441406-4.777344-43.222656-15.394532-55.824219-31.554688-12.574219-16.128906-31.484375-25.378906-51.886719-25.378906h-45.035156c-38.09375 0-37.785156-40.0625-37.785156-40.0625 3.28125-3.097656 6.304688-6.417969 9.058594-9.949219 9.710937-12.457031 24.3125-19.601563 40.058594-19.601563h45.035156c29.105468 0 52.785156-23.679687 52.785156-52.785156v-177.003906c0-29.101562-23.679688-52.78125-52.785156-52.78125h-182.753906c-4.140626 0-7.5 3.355469-7.5 7.5 0 4.140625 3.359374 7.5 7.5 7.5h182.753906c20.835937 0 37.785156 16.949219 37.785156 37.78125v177.007812c0 20.832032-16.949219 37.78125-37.785156 37.78125h-45.035156c-20.402344 0-39.3125 9.25-51.886719 25.378907-12.601563 16.160156-31.382813 26.777343-55.824219 31.554687-2.300781.449219-3.546875-.894531-4.089844-1.730468-.460937-.71875-1.371094-2.609376.128906-4.714844 3.398438-4.769532 6.226563-9.949219 8.40625-15.402344 3.15625-7.902344 2.191407-16.824219-2.574218-23.863281-4.757813-7.027344-12.667969-11.222657-21.15625-11.222657h-59.371094c-20.832031 0-37.78125-16.949218-37.78125-37.78125v-177.007812c0-20.832031 16.949219-37.78125 37.78125-37.78125h17.417969c4.144531 0 7.5-3.359375 7.5-7.5 0-4.144531-3.355469-7.5-7.5-7.5h-17.417969c-29.101562 0-52.78125 23.679688-52.78125 52.78125v177.007812c0 29.105469 23.679688 52.78125 52.78125 52.78125h59.371094c3.558594 0 6.742187 1.691407 8.734375 4.632813 2.003906 2.957031 2.394531 6.5625 1.0625 9.886719-1.734375 4.34375-3.984375 8.46875-6.6875 12.261718-4.597657 6.449219-4.800781 14.90625-.523438 21.542969 3.542969 5.503907 10.574219 9.839844 19.574219 8.332031 15.738281-2.644531 29.628906-8.492187 41.464844-16.035156 4.199218 24.933594 25.925781 43.992188 52.039062 43.992188h45.035156c15.746094 0 30.347657 7.144531 40.058594 19.601562 14.675782 18.828125 37.160156 31.226563 64.777344 37.054688 8.628906 1.820312 16.03125-2.828125 19.574219-8.328125 4.277343-6.640625 4.070312-15.097657-.527344-21.546875-2.703125-3.792969-4.953125-7.917969-6.6875-12.257813-1.328125-3.324219-.941406-6.929687 1.0625-9.890625 1.996094-2.941406 5.179687-4.632812 8.734375-4.632812h59.371094c29.105468 0 52.78125-23.675782 52.78125-52.78125v-177.007813c.003906-29.105469-23.675782-52.78125-52.777344-52.78125zm0 0"/><path d="m214.242188 39.546875c-6.210938-3.929687-20.804688-8.082031-33.800782 6.003906-5.378906 5.832031-12.335937 10.648438-20.675781 14.328125-11.035156 4.867188-20.796875 13.703125-28.433594 25.660156h-36.136719c-19.511718 0-35.386718 15.875-35.386718 35.386719v91.546875c0 19.511719 15.875 35.382813 35.386718 35.382813h12.46875c14.15625 0 26.390626-8.359375 32.042969-20.394531h114.726563c12.53125 0 22.722656-10.195313 22.722656-22.726563 0-5.847656-2.222656-11.1875-5.867188-15.222656 3.644532-4.03125 5.867188-9.371094 5.867188-15.222657 0-5.851562-2.222656-11.191406-5.867188-15.226562 3.644532-4.03125 5.867188-9.371094 5.867188-15.222656 0-5.851563-2.222656-11.191406-5.867188-15.226563 3.644532-4.03125 5.867188-9.371093 5.867188-15.222656 0-12.53125-10.191406-22.722656-22.722656-22.722656h-42.621094c2.242188-2.792969 4.578125-5.925781 6.996094-9.386719 5.386718-7.703125 13.429687-30.347656-4.566406-41.734375zm-86.191407 172.925781c0 11.238282-9.144531 20.382813-20.386719 20.382813h-12.46875c-11.242187 0-20.386718-9.144531-20.386718-20.382813v-91.546875c0-11.242187 9.144531-20.386719 20.386718-20.386719h32.855469zm126.382813-106.804687c4.257812 0 7.722656 3.464843 7.722656 7.726562 0 4.257813-3.464844 7.722657-7.722656 7.722657-4.144532 0-7.5 3.355468-7.5 7.5 0 4.144531 3.355468 7.5 7.5 7.5 4.257812 0 7.722656 3.464843 7.722656 7.726562 0 4.257812-3.464844 7.722656-7.722656 7.722656-4.144532 0-7.5 3.355469-7.5 7.5 0 4.144532 3.355468 7.5 7.5 7.5 4.257812 0 7.722656 3.464844 7.722656 7.722656 0 4.261719-3.464844 7.726563-7.722656 7.726563-4.144532 0-7.5 3.355469-7.5 7.5 0 4.140625 3.355468 7.5 7.5 7.5 4.257812 0 7.722656 3.464844 7.722656 7.722656 0 4.257813-3.464844 7.726563-7.722656 7.726563h-111.382813v-117.382813c4.535157-7.484375 11.949219-16.707031 22.769531-21.480469 10.234376-4.511718 18.863282-10.527343 25.644532-17.878906 6.851562-7.421875 12.558594-5.101562 14.59375-3.605468 7.53125 5.542968 3.457031 16.28125.457031 20.574218-6.648437 9.507813-12.660156 16.363282-16.929687 19.296875-2.707032 1.863281-3.886719 5.269531-2.914063 8.40625.976563 3.136719 3.878906 5.273438 7.164063 5.273438zm0 0"/><path d="m78.929688 204.960938c0 12.40625 10.09375 22.5 22.5 22.5s22.5-10.09375 22.5-22.5-10.09375-22.5-22.5-22.5-22.5 10.09375-22.5 22.5zm22.5-7.5c4.136718 0 7.5 3.363281 7.5 7.5 0 4.136718-3.363282 7.5-7.5 7.5-4.136719 0-7.5-3.363282-7.5-7.5 0-4.136719 3.363281-7.5 7.5-7.5zm0 0"/></svg>