<svg height="512pt" viewBox="0 -51 512.00003 512" width="512pt" xmlns="http://www.w3.org/2000/svg"><path d="m292.058594 85.625h203.84375c2.761718 0 4.996094 2.238281 4.996094 4.996094v305.027344c0 2.757812-2.234376 4.996093-4.996094 4.996093h-482.019532c-2.761718 0-4.996093-2.238281-4.996093-4.996093v-305.027344c0-2.757813 2.234375-4.996094 4.996093-4.996094h202.230469" fill="#f5f0eb"/><path d="m115.46875 220.488281c-14.4375 0-26.140625-11.703125-26.140625-26.140625v-19.703125c0-14.433593 11.703125-26.136719 26.140625-26.136719s26.140625 11.703126 26.140625 26.136719v19.703125c0 14.4375-11.703125 26.140625-26.140625 26.140625zm0 0" fill="#f2d1a5"/><path d="m50.128906 303.085938v-28.207032c0-13.601562 3.917969-26.914062 11.285156-38.34375 6.460938-10.023437 17.566407-16.078125 29.488282-16.078125h48.480468c11.921876 0 23.03125 6.054688 29.488282 16.078125 7.367187 11.429688 11.285156 24.742188 11.285156 38.34375v28.207032zm0 0" fill="#00ee8a"/><path d="m116.542969 148.507812h-2.136719c-13.847656 0-25.074219 11.222657-25.074219 25.070313v5.910156c7.054688 1.921875 15.445313 3.4375 20.363281 1.625 9.652344-3.558593 17.734376-7.53125 25.496094-5.707031 1.578125.371094 3.84375-.519531 6.410156-2.222656-.207031-13.664063-11.34375-24.675782-25.058593-24.675782zm0 0" fill="#919196"/><path d="m8.886719 303.011719v92.566406c0 2.757813 2.234375 4.996094 4.996093 4.996094h482.019532c2.757812 0 4.996094-2.238281 4.996094-4.996094v-92.566406zm0 0" fill="#919196"/><path d="m333.613281 352.460938c0 10.285156-8.335937 18.621093-18.617187 18.621093-10.285156 0-18.621094-8.335937-18.621094-18.621093 0-10.28125 8.335938-18.617188 18.621094-18.617188 10.28125 0 18.617187 8.335938 18.617187 18.617188zm0 0" fill="#00ee8a"/><path d="m401.441406 352.460938c0 10.285156-8.335937 18.621093-18.621094 18.621093-10.28125 0-18.617187-8.335937-18.617187-18.621093 0-10.28125 8.335937-18.617188 18.617187-18.617188 10.285157 0 18.621094 8.335938 18.621094 18.617188zm0 0" fill="#ff415b"/><path d="m469.066406 352.460938c0 10.285156-8.335937 18.621093-18.621094 18.621093-10.28125 0-18.617187-8.335937-18.617187-18.621093 0-10.28125 8.335937-18.617188 18.617187-18.617188 10.285157 0 18.621094 8.335938 18.621094 18.617188zm0 0" fill="#ff9f22"/><path d="m292.058594 117.246094h-75.945313v-69.28125c0-20.972656 17.003907-37.972656 37.972657-37.972656 20.972656 0 37.972656 17 37.972656 37.972656zm0 0" fill="#5ecef4"/><path d="m497.011719 75.632812h-193.855469v-27.667968c0-26.449219-21.515625-47.964844-47.960938-47.964844-26.449218 0-47.964843 21.515625-47.964843 47.964844v27.667968h-192.242188c-8.265625 0-14.988281 6.722657-14.988281 14.988282v305.027344c0 8.261718 6.722656 14.988281 14.988281 14.988281h482.023438c8.265625 0 14.988281-6.726563 14.988281-14.988281v-305.027344c0-8.265625-6.722656-14.988282-14.988281-14.988282zm-269.796875-27.667968c0-11.910156 7.480468-22.097656 17.984375-26.128906v13.878906c0 5.515625 4.476562 9.992187 9.996093 9.992187 5.515626 0 9.992188-4.476562 9.992188-9.992187v-13.878906c10.503906 4.03125 17.984375 14.21875 17.984375 26.128906v59.289062h-55.957031zm264.800781 342.617187h-472.03125v-77.574219h30.109375c.375.042969.757812.066407 1.144531.066407h130.027344c.386719 0 .769531-.023438 1.144531-.066407h309.605469zm-391.589844-196.234375v-2.722656c1.691407.179688 3.300781.28125 4.8125.28125 3.464844 0 6.460938-.476562 9.019531-1.417969 1.515626-.558593 2.996094-1.125 4.4375-1.683593 5.585938-2.148438 10.488282-4.027344 14.027344-3.84375v9.386718c0 8.6875-6.902344 15.777344-15.511718 16.113282h-1.269532c-8.609375-.335938-15.515625-7.425782-15.515625-16.113282zm29.132813-29.261718c-6.226563.539062-12.199219 2.824218-18.035156 5.070312-1.359376.519531-2.75 1.054688-4.171876 1.578125-.023437.007813-1.726562.550781-6.617187-.203125 1.457031-7.417969 8.003906-13.03125 15.839844-13.03125 5.324219 0 10.042969 2.601562 12.984375 6.585938zm-37.546875 65.363281h14.570312v22.636719c0 5.515624 4.476563 9.992187 9.992188 9.992187 5.519531 0 9.996093-4.476563 9.996093-9.992187v-22.636719h13.921876c8.5625 0 16.449218 4.296875 21.089843 11.496093 6.339844 9.839844 9.691407 21.226563 9.691407 32.933594v18.140625h-110.042969v-18.140625c0-11.707031 3.351562-23.09375 9.691406-32.933594 4.640625-7.199218 12.523437-11.496093 21.089844-11.496093zm400.003906 62.570312h-300.757813v-18.140625c0-15.554687-4.453124-30.683594-12.878906-43.757812-6.859375-10.644532-17.667968-17.746094-29.851562-19.933594 2.664062-5.03125 4.179687-10.761719 4.179687-16.839844v-19.703125c0-.378906-.015625-.757812-.027343-1.132812.003906-.160157.023437-.320313.023437-.480469-.296875-19.035156-16.019531-34.519531-35.054687-34.519531h-2.136719c-19.335938 0-35.0625 15.730469-35.0625 35.066406v.875c0 .066406-.007813.128906-.007813.195313v19.699218c0 6.042969 1.5 11.738282 4.128906 16.746094-12.425781 2.058594-23.476562 9.210938-30.449218 20.027344-8.425782 13.074218-12.878906 28.207031-12.878906 43.757812v18.144532h-21.257813v-197.40625h187.246094v21.628906c0 5.515625 4.472656 9.992187 9.992187 9.992187h75.941406c5.519532 0 9.992188-4.476562 9.992188-9.992187v-21.628906h188.859375zm0 0"/><path d="m316.101562 381.074219c15.777344 0 28.613282-12.835938 28.613282-28.613281 0-15.777344-12.835938-28.609376-28.613282-28.609376-15.777343 0-28.613281 12.832032-28.613281 28.609376 0 15.777343 12.835938 28.613281 28.613281 28.613281zm0-37.238281c4.757813 0 8.628907 3.867187 8.628907 8.625 0 4.757812-3.871094 8.628906-8.628907 8.628906-4.757812 0-8.628906-3.871094-8.628906-8.628906 0-4.757813 3.871094-8.625 8.628906-8.625zm0 0"/><path d="m383.929688 381.074219c15.777343 0 28.609374-12.835938 28.609374-28.613281 0-15.777344-12.832031-28.609376-28.609374-28.609376-15.777344 0-28.613282 12.832032-28.613282 28.609376 0 15.777343 12.835938 28.613281 28.613282 28.613281zm0-37.238281c4.757812 0 8.625 3.867187 8.625 8.625 0 4.757812-3.867188 8.628906-8.625 8.628906-4.757813 0-8.628907-3.871094-8.628907-8.628906 0-4.757813 3.871094-8.625 8.628907-8.625zm0 0"/><path d="m451.554688 381.074219c15.777343 0 28.609374-12.835938 28.609374-28.613281 0-15.777344-12.832031-28.609376-28.609374-28.609376-15.777344 0-28.613282 12.832032-28.613282 28.609376 0 15.777343 12.835938 28.613281 28.613282 28.613281zm0-37.238281c4.757812 0 8.625 3.867187 8.625 8.625 0 4.757812-3.871094 8.628906-8.625 8.628906-4.757813 0-8.628907-3.871094-8.628907-8.628906 0-4.757813 3.871094-8.625 8.628907-8.625zm0 0"/><path d="m242.414062 158.921875c0 5.519531 4.472657 9.992187 9.992188 9.992187h165.117188c5.519531 0 9.992187-4.472656 9.992187-9.992187 0-5.515625-4.472656-9.992187-9.992187-9.992187h-165.117188c-5.519531 0-9.992188 4.476562-9.992188 9.992187zm0 0"/><path d="m457.742188 187.898438h-205.335938c-5.519531 0-9.992188 4.476562-9.992188 9.992187 0 5.519531 4.472657 9.992187 9.992188 9.992187h205.335938c5.515624 0 9.992187-4.472656 9.992187-9.992187 0-5.515625-4.476563-9.992187-9.992187-9.992187zm0 0"/><path d="m333.339844 223.871094h-82.433594c-5.515625 0-9.992188 4.472656-9.992188 9.992187 0 5.515625 4.476563 9.992188 9.992188 9.992188h82.433594c5.519531 0 9.996094-4.476563 9.996094-9.992188 0-5.519531-4.476563-9.992187-9.996094-9.992187zm0 0"/><path d="m458.242188 223.871094h-81.4375c-5.519532 0-9.992188 4.472656-9.992188 9.992187 0 5.515625 4.472656 9.992188 9.992188 9.992188h81.4375c5.515624 0 9.992187-4.476563 9.992187-9.992188 0-5.519531-4.476563-9.992187-9.992187-9.992187zm0 0"/><path d="m450.832031 167.59375.292969.226562c1.804688 1.371094 3.929688 2.035157 6.035156 2.035157 3.019532 0 6-1.363281 7.964844-3.949219 3.339844-4.394531 2.484375-10.664062-1.914062-14.003906l-.292969-.222656c-4.394531-3.335938-10.660157-2.480469-14 1.914062-3.339844 4.394531-2.484375 10.664062 1.914062 14zm0 0"/><path d="m261.546875 67.523438-.292969-.222657c-4.386718-3.347656-10.65625-2.503906-14.003906 1.882813-3.347656 4.390625-2.503906 10.660156 1.882812 14.003906l.292969.226562c1.8125 1.382813 3.941407 2.050782 6.054688 2.050782 3.007812 0 5.984375-1.355469 7.953125-3.933594 3.34375-4.390625 2.5-10.660156-1.886719-14.007812zm0 0"/></svg>